<svg xmlns="http://www.w3.org/2000/svg" width="183" height="980" viewBox="0 0 183 980"><g><g><path fill="#231f20" d="M64.853 709.933c-36.85-.067-62.829 19.23-62.88 45.883-.054 27.41 24.486 45.089 63.29 45.16 36.657.066 62.043-18.85 62.095-45.883.054-27.773-24.097-45.09-62.505-45.16-38.407-.07 0 0 0 0zM.003 755.256c.07-35.483 26.665-61.893 65.086-61.823 34.278.062 64.51 29.2 64.446 62.425-.07 35.483-26.483 61.707-64.465 61.638-34.095-.062-65.13-29.202-65.066-62.24zm84.461-138.859l-76.656-.14c-1.38-.002-2.185 1.224-3 11.946l-.615 8.033-1.196.621.112-57.903 1.194.63.764 10.31c.596 7.2 2.155 9.879 3.364 9.88l73.473.134c28.725.053 41.413-12.468 41.466-40.094.048-24.715-14.573-38.548-45.483-38.604l-66.53.09c-2.774-.004-5.354 5.975-6.582 18.52l-.402 3.935-1.197.603.086-44.295 1.194.617.387 4.125c.778 8.85 3.154 14.206 6.915 14.212l66.734.342c32.677.254 51.474 14.316 51.41 46.833-.068 35.464-12.982 50.264-45.438 50.205m41.7-170.676l-.763-7.155c-.563-6.557-1.966-8.627-3.155-8.63L8.17 429.73c-1.38-.002-1.98.74-2.813 10.52l-.583 5.07-1.204.54.101-51.99 1.202.575.762 11.24c.59 6.581 1.946 9.023 3.155 9.026l115.862.21 1.044-22.142c-.163-22.34-13.82-28.368-34.009-36.488l-2.575-1.136.002-1.113 38.417 7.38-.164 84.853zM71.558 222.643c0-.191-50.743 17.726-50.743 17.726v.22l50.67 19.362zm1.898 38.137l26.732 10.098c21.574 8.008 24.323 8.013 25.954-11.048l.393-4.393 1.204-.63-.088 45.445-1.202-.632-.378-3.349c-1.568-13.001-3.934-14.64-40.147-28.776L17.64 241.418l-5.552 2.063c-1.79-5.232-5.519-8.373-10.25-10.672l.005-1.892 105.217-37.91c15.656-5.637 18.641-7.542 19.244-17.34l.396-5.878 1.204-.621-.106 54.854-1.202-.61-.371-6.72c-.377-8.401-4.155-11.746-13.45-8.629L73.53 221.82zM2.29 0l1.146.642.4 3.33C5.395 16.979 7.79 18.622 43.99 32.75l68.289 26.092s1.597.664 3.777 1.61l27.77 9.646c26.296 8.81 39.2 18.45 39.169 35.136-.018 9.033-5.313 16.092-12.163 16.08-6.314-.012-11.832-5.673-11.818-12.738.016-8.172 5.554-13.281 12.653-14.671-1.82-10.167-12.041-15.016-32.563-22.36l-8.742-3.097-107.496 38.844c-15.67 5.591-18.652 7.486-19.261 17.335l-.418 5.84-1.15.646.107-54.88 1.147.624.393 6.704c.37 8.401 4.137 11.763 13.463 8.629l91.942-32.298-52.623-20.427-26.726-10.07C8.157 21.376 5.386 21.371 3.767 40.423l-.415 4.393-1.15.628zm90.945 902.237c-19.436-.035-33.941 13.81-33.981 34.478-.009 4.126.205 8.813.571 11.823l61.22.111 3.246-11.844c.15 3.31.263 5.829 0 0l.351-1.28s-.388-4.511-.603-4.33c-.923-20.475-15.793-28.93-30.804-28.958zm-35.34 25.638c1.43-28.155 16.52-42.02 34.349-41.988 20.198.036 34.235 17.527 34.174 48.88L126.331 980l-1.202-.555-.764-6.765c-.563-6.565-1.965-9.02-3.155-9.022l-83.424-.151-6.143-15.02 25.628.047-.186-9.198c-.374-20.276-11.439-30.24-26.07-30.268-5.68-.01-10.4 1.042-14.208 3.097l-4.858-11.926c4.57-5.414 10.492-7.903 17.105-7.891 13.267.024 24.345 8.865 28.257 35.526l.586.001s-1.43 28.155 0 0z"/></g></g></svg>